{"title":"Rev S03E05 Xvid RB58.avi","uid":10018266,"size":271407706,"categoryP":"video","categoryS":"tv_shows","magnet":"?xt=urn:btih:ee24d015736295bf1662f5a56c5dfd9faf8a6360&amp;dn=Rev+S03E05+Xvid+RB58.avi&amp;tr=udp%3A%2F%2Ftracker.openbittorrent.com%3A80&amp;tr=udp%3A%2F%2Fopen.demonii.com%3A1337&amp;tr=udp%3A%2F%2Ftracker.coppersurfer.tk%3A6969&amp;tr=udp%3A%2F%2Fexodus.desync.com%3A6969","seeders":0,"leechers":1,"uploader":"RedBaron58","files":1,"time":1398176950,"description":"Rev Series 3 Episode 5 BBC Comedy Xvid\n &lt;a href=&quot;\nhttp://www.imdb.com/title/tt1588221/&quot; rel=&quot;nofollow&quot; target=&quot;_NEW&quot;&gt;\nhttp://www.imdb.com/title/tt1588221/&lt;/a&gt; \n\n\nPlease be patient My upload speed is limited, but I am online most the time and during the night.\nThank you for your kind comments and thumbs ups on my other torrents, your feedback is welcome.\n\n\nAbout the Episode:\nAdam is shocked when he discovers that Nigel has reported him to the bishop for conduct unbecoming \nto a vicar. As Archdeacon Robert investigates the complaint, Adam begins to seriously doubt whether \nhe is cut out to be a vicar after all. Liam Neeson makes a guest appearance as God.\n\n\nI hope you enjoy.\n\n\nTechnical:\n\nGeneral\nComplete name                            : G:Rev S03E05 Xvid RB58.avi\nFormat                                   : AVI\nFormat/Info                              : Audio Video Interleave\nFile size                                : 259 MiB\nDuration                                 : 29mn 32s\nOverall bit rate                         : 1 225 Kbps\n\nVideo\nID                                       : 0\nFormat                                   : MPEG-4 Visual\nFormat profile                           : Advanced Simple@L4\nFormat settings, BVOP                    : 2\nFormat settings, QPel                    : No\nFormat settings, GMC                     : No warppoints\nFormat settings, Matrix                  : Default (H.263)\nCodec ID                                 : DIVX\nCodec ID/Info                            : Project Mayo\nCodec ID/Hint                            : DivX 4\nDuration                                 : 29mn 32s\nBit rate                                 : 1 083 Kbps\nWidth                                    : 704 pixels\nHeight                                   : 396 pixels\nDisplay aspect ratio                     : 16:9\nFrame rate                               : 25.000 fps\nColor space                              : YUV\nChroma subsampling                       : 4:2:0\nBit depth                                : 8 bits\nScan type                                : Progressive\nCompression mode                         : Lossy\nBits/(Pixel*Frame)                       : 0.155\nStream size                              : 229 MiB (88%)\nWriting library                          : XviD 64\n\nAudio\nID                                       : 1\nFormat                                   : MPEG Audio\nFormat version                           : Version 1\nFormat profile                           : Layer 3\nCodec ID                                 : 55\nCodec ID/Hint                            : MP3\nDuration                                 : 29mn 32s\nBit rate mode                            : Constant\nBit rate                                 : 128 Kbps\nChannel(s)                               : 2 channels\nSampling rate                            : 48.0 KHz\nCompression mode                         : Lossy\nStream size                              : 27.0 MiB (10%)\nAlignment                                : Aligned on interleaves\nInterleave, duration                     : 24 ms (0.60 video frame)","torrent":{"xt":"urn:btih:ee24d015736295bf1662f5a56c5dfd9faf8a6360","amp;dn":"Rev+S03E05+Xvid+RB58.avi","amp;tr":["udp%3A%2F%2Ftracker.openbittorrent.com%3A80","udp%3A%2F%2Fopen.demonii.com%3A1337","udp%3A%2F%2Ftracker.coppersurfer.tk%3A6969","udp%3A%2F%2Fexodus.desync.com%3A6969"],"infoHash":"ee24d015736295bf1662f5a56c5dfd9faf8a6360","infoHashBuffer":{"type":"Buffer","data":[238,36,208,21,115,98,149,191,22,98,245,165,108,93,253,159,175,138,99,96]},"announce":[],"urlList":[]}}